<?xml version="1.0" standalone="no"?><!DOCTYPE svg PUBLIC "-//W3C//DTD SVG 1.1//EN" "http://www.w3.org/Graphics/SVG/1.1/DTD/svg11.dtd"><svg t="1534832050605" class="icon" style="" viewBox="0 0 1024 1024" version="1.1" xmlns="http://www.w3.org/2000/svg" p-id="2461" xmlns:xlink="http://www.w3.org/1999/xlink" width="500" height="500"><defs><style type="text/css"></style></defs><path d="M1009.663104 888.216001l-56.115099-532.479041a122.879779 122.879779 0 0 0-122.879779-109.977402h-88.268641v-22.52796A219.545205 219.545205 0 0 0 523.05918 3.891193h-22.11836A219.545205 219.545205 0 0 0 281.600415 223.231598V245.759558H192.512575a122.879779 122.879779 0 0 0-122.879779 109.977402l-55.2959 532.479041a122.879779 122.879779 0 0 0 122.879779 135.782156h750.385849a122.879779 122.879779 0 0 0 122.06058-135.782156zM332.800323 223.231598a168.345297 168.345297 0 0 1 168.140497-168.140497h22.11836a168.345297 168.345297 0 0 1 168.140497 168.140497V245.759558h-358.399354z m608.050105 725.809894a70.860672 70.860672 0 0 1-53.247904 23.756757H136.397476a71.679871 71.679871 0 0 1-71.270272-79.257457l56.115099-532.479042A71.475071 71.475071 0 0 1 192.512575 296.959465h89.08784v89.907039a40.959926 40.959926 0 1 0 51.199908 3.071994V296.959465h358.399354V389.1193a40.959926 40.959926 0 1 0 51.199908-3.071995V296.959465h89.08784a71.475071 71.475071 0 0 1 71.270272 64.102285l56.115099 532.479042a70.860672 70.860672 0 0 1-18.022368 55.5007z" p-id="2462"></path></svg>