<?xml version="1.0" encoding="utf-8"?>
<!-- Generator: Adobe Illustrator 22.1.0, SVG Export Plug-In . SVG Version: 6.00 Build 0)  -->
<svg version="1.1" id="图层_1" xmlns="http://www.w3.org/2000/svg" xmlns:xlink="http://www.w3.org/1999/xlink" x="0px" y="0px"
	 viewBox="0 0 500 500" style="enable-background:new 0 0 500 500;" xml:space="preserve">
<path d="M356.1,293v-25.2h-73.8l0.9-9c3-16.8,4.8-40.8,5.4-72h-28.8c0,27.6-1.5,51.3-4.5,71.1l-0.9,9.9H143V293h103.4
	c-8.4,19.2-41.7,32.4-99.8,39.6c1.2,1.8,2.7,4.8,4.5,9c4.2,8.4,7.2,14.4,9,18c52.2-10.2,85.7-23.4,100.7-39.6c3,1.2,7.2,3,12.6,5.4
	c27.6,12.6,49.5,23.1,65.7,31.5l14.4-24.3c-6-2.4-17.7-7.2-35.1-14.4c-20.4-9-35.1-15.3-44.1-18.9l2.7-6.3H356.1L356.1,293z"/>
<path d="M169.9,218.3l-12.6,19.8c22.2,12,39.9,21.9,53.1,29.7l13.5-20.7C203.5,235.1,185.5,225.5,169.9,218.3z M321.1,224.6
	c6,1.8,10.2,3,12.6,3.6l16.2-51.3v-23.4H150.2v24.3H322l-14.4,44.1C312.1,222.8,316.6,223.7,321.1,224.6L321.1,224.6z"/>
<path d="M231.1,230.9l14.4-21.6c-18-10.2-36-19.2-54-27l-12.6,18.9C195.7,209.7,213.1,219.5,231.1,230.9L231.1,230.9z"/>
<path d="M482.2,232.2c-9.8,0-17.8,8-17.8,17.8c0,57.3-22.3,111.1-62.8,151.6c-40.5,40.5-94.4,62.8-151.6,62.8
	c-57.3,0-111.1-22.3-151.6-62.8C57.9,361.1,35.6,307.3,35.6,250S57.9,138.9,98.4,98.4c40.5-40.5,94.3-62.8,151.6-62.8
	c38.1,0,75.5,10.1,108.1,29.2c31.7,18.6,58.3,45.1,76.9,76.8c5,8.5,15.9,11.3,24.3,6.3c8.5-5,11.3-15.9,6.3-24.3
	C444,86.7,413,55.7,376.1,34.1C338,11.8,294.4,0,250,0c-33.7,0-66.5,6.6-97.3,19.7c-29.8,12.6-56.5,30.6-79.5,53.6
	c-23,23-41,49.7-53.6,79.5C6.6,183.5,0,216.3,0,250s6.6,66.5,19.7,97.3c12.6,29.8,30.6,56.5,53.6,79.5c23,23,49.7,41,79.5,53.6
	c30.8,13,63.6,19.7,97.3,19.7c33.7,0,66.5-6.6,97.3-19.7c29.8-12.6,56.5-30.6,79.5-53.6c23-23,41-49.7,53.6-79.5
	c13-30.8,19.7-63.6,19.7-97.3C500,240.2,492,232.2,482.2,232.2L482.2,232.2z"/>
</svg>
