<?xml version="1.0" encoding="utf-8"?>
<!-- Generator: Adobe Illustrator 22.0.0, SVG Export Plug-In . SVG Version: 6.00 Build 0)  -->
<svg version="1.1" id="图层_1" xmlns="http://www.w3.org/2000/svg" xmlns:xlink="http://www.w3.org/1999/xlink" x="0px" y="0px"
	 viewBox="0 0 200 200" style="enable-background:new 0 0 200 200;" xml:space="preserve">
<path d="M163.6,113.7c17.8,0,32.3-14.5,32.3-32.3c0-3.2-0.5-6.4-1.5-9.6c-0.1-0.6-0.2-1.3-0.5-1.9l-12.6-47.1
	c-2.8-10.5-13.3-18.7-24-18.7H42.7c-10.6,0-21.2,8.2-24,18.7l-12.9,48c-0.1,0.2-0.1,0.4-0.1,0.6c-1.1,3.2-1.6,6.6-1.6,10
	c0,17.8,14.5,32.3,32.3,32.3c8.1,0,15.9-3.1,21.8-8.5c5.7,5.5,13.4,8.5,21.3,8.5c7.6,0,14.9-2.8,20.5-7.8c5.6,5,12.9,7.8,20.5,7.8
	c7.9,0,15.6-3.1,21.3-8.5C147.7,110.6,155.5,113.7,163.6,113.7z M141.5,86.3c-2.5,0-4.7,2.1-5.9,4.3c-3,5.6-8.8,9.7-15.1,9.7
	c-6,0-11.5-2.8-14.6-7.9c-1.2-2.1-3.5-2.7-5.9-2.7h0c-2.4,0-4.6,0.6-5.9,2.6c-3.1,5.2-8.6,7.6-14.6,7.6c-6.3,0-12.1-3.5-15.1-9.1
	c-1.2-2.2-3.4-3.6-5.9-3.6c-2.4-0.1-4.8,1.3-6,3.4c-3.3,5.7-9.5,9.3-16.1,9.3c-10.3,0-18.6-8.3-18.6-18.6c0-2.2,0.4-4.4,1.2-6.4
	c0.2-0.5,0.3-1.1,0.4-1.6l12.6-47c1.2-4.6,6.2-8.6,10.8-8.6h114.7c4.5,0,9.5,4,10.7,8.6l12.6,46.9c0.1,0.6,0.2,1.1,0.4,1.6
	c0.8,2.1,1.2,4.2,1.2,6.3c0,10.3-8.3,18.5-18.6,18.5c-6.6,0-12.8-3.8-16.1-9.5c-1.2-2.1-3.5-3.9-5.9-3.9H141.5L141.5,86.3z
	 M100.1,182.2H38.4c-3.8,0-6.9-3.1-6.9-6.8v-47.9c0-3.8-3.1-6.8-6.8-6.8s-6.8,3.1-6.8,6.8v47.9c0,11.3,9.3,20.5,20.6,20.5h61.6
	c3.8,0,6.8-3.1,6.8-6.8C106.9,185.2,103.8,182.2,100.1,182.2z M189.1,154.8h-20.6v-20.5c0-3.8-3.1-6.8-6.8-6.8s-6.8,3.1-6.8,6.8
	v20.5h-20.5c-3.8,0-6.8,3.1-6.8,6.8s3.1,6.8,6.8,6.8h20.5V189c0,3.8,3.1,6.8,6.8,6.8s6.8-3.1,6.8-6.8v-20.5h20.6
	c3.8,0,6.8-3.1,6.8-6.8S192.9,154.8,189.1,154.8z"/>
</svg>
