<?xml version="1.0" standalone="no"?><!DOCTYPE svg PUBLIC "-//W3C//DTD SVG 1.1//EN" "http://www.w3.org/Graphics/SVG/1.1/DTD/svg11.dtd"><svg t="1534834951074" class="icon" style="" viewBox="0 0 1024 1024" version="1.1" xmlns="http://www.w3.org/2000/svg" p-id="2895" xmlns:xlink="http://www.w3.org/1999/xlink" width="500" height="500"><defs><style type="text/css"></style></defs><path d="M472.064 611.9424a307.2 307.2 0 1 0-264.8064-264.8064 307.2 307.2 0 0 0 264.8064 264.8064zM512 563.2a256.2048 256.2048 0 0 1-255.7952-253.1328h282.2144a20.48 20.48 0 0 0 17.6128-10.24l27.8528-47.9232 31.744 48.7424a20.48 20.48 0 0 0 17.2032 9.216h134.9632A256.2048 256.2048 0 0 1 512 563.2z m0-512a256.4096 256.4096 0 0 1 251.2896 207.6672H655.36a10.24 10.24 0 0 1-8.6016-4.7104l-65.3312-99.9424-57.7536 99.328a10.24 10.24 0 0 1-8.8064 5.12H260.7104A256.4096 256.4096 0 0 1 512 51.2zM614.4 655.36H409.6A245.76 245.76 0 0 0 163.84 901.12v81.92a40.96 40.96 0 0 0 40.96 40.96h614.4a40.96 40.96 0 0 0 40.96-40.96v-81.92a245.76 245.76 0 0 0-245.76-245.76z m194.56 317.44h-593.92V901.12a194.7648 194.7648 0 0 1 194.56-194.56h204.8a194.7648 194.7648 0 0 1 194.56 194.56z" p-id="2896"></path></svg>