<?xml version="1.0" standalone="no"?><!DOCTYPE svg PUBLIC "-//W3C//DTD SVG 1.1//EN" "http://www.w3.org/Graphics/SVG/1.1/DTD/svg11.dtd"><svg class="icon" width="200px" height="200.00px" viewBox="0 0 1024 1024" version="1.1" xmlns="http://www.w3.org/2000/svg"><path d="M839.124304 104.708737h-139.486174V62.611935h-104.457787C577.300181 37.537883 544.363041 20.49422 506.239609 20.49422s-71.03966 17.043663-88.940735 42.117715h-101.969203v42.096802H188.244592c-45.610097 0-82.604256 37.684271-82.604256 84.193603V939.806396c0 46.509333 36.994159 84.193604 82.604256 84.193604h650.879712c45.610097 0 82.604256-37.684271 82.604256-84.193604V188.90234c0-46.509333-36.973247-84.193604-82.604256-84.193603z m-482.492505 0h92.244905c0-23.254667 25.680513-42.096802 57.362905-42.096802s57.362905 18.842135 57.362904 42.096802h94.733489v118.427317H356.631799V104.708737zM880.426432 939.806396c0 23.254667-18.486623 42.096802-41.302128 42.096802H188.244592c-22.794592 0-41.302128-18.842135-41.302128-42.096802V188.90234c0-23.254667 18.507536-42.096802 41.302128-42.096801h127.085079v118.427316h384.308459V146.805539h139.486174c22.815505 0 41.302128 18.842135 41.302128 42.096801V939.806396z m-141.577421-247.624556H288.519885c-9.745211 0-17.650125 9.431524-17.650125 21.058858 0 11.627333 7.904914 21.058857 17.650125 21.058857h450.329126c9.745211 0 17.650125-9.431524 17.650125-21.058857 0-11.627333-7.904914-21.058857-17.650125-21.058858z m0-267.324102H288.519885c-9.745211 0-17.650125 9.431524-17.650125 21.058857 0 11.606421 7.904914 21.037945 17.650125 21.037945h450.329126c9.745211 0 17.650125-9.431524 17.650125-21.037945 0-11.627333-7.904914-21.058857-17.650125-21.058857z m0 134.697219H288.519885c-9.745211 0-17.650125 9.431524-17.650125 21.058857 0 11.627333 7.904914 21.058857 17.650125 21.058857h450.329126c9.745211 0 17.650125-9.431524 17.650125-21.058857 0-11.627333-7.904914-21.058857-17.650125-21.058857z" /></svg>