<?xml version="1.0" encoding="utf-8"?>
<!-- Generator: Adobe Illustrator 22.0.0, SVG Export Plug-In . SVG Version: 6.00 Build 0)  -->
<svg version="1.1" id="图层_1" xmlns="http://www.w3.org/2000/svg" xmlns:xlink="http://www.w3.org/1999/xlink" x="0px" y="0px"
	 viewBox="0 0 200 200" style="enable-background:new 0 0 200 200;" xml:space="preserve">
<path d="M41.7,197.8c-15,0-27.2-11.6-27.2-25.9v-53.4h12.7v53.4c0,7.4,6.4,13.2,14.5,13.2h116.7c7.9,0,14.5-6.1,14.5-13.2v-53.4
	h12.7v53.4c0,14.3-12.2,25.9-27.2,25.9H41.7z M161.2,106.5c-10.9,0-21.9-6.4-28.8-16.6l-1.6-2.4l-1.7,2.4
	c-7.4,10.4-18.3,16.7-29.2,16.7c-10.9,0-21.9-6.4-28.8-16.6l-1.6-2.4L68,89.9c-7.5,10.6-18.1,16.7-29.2,16.7
	C18.5,106.5,2,90.1,2,69.8v-1.3L30.9,2.2h138.2L198,68.1v1.2C198,89.9,181.5,106.5,161.2,106.5z M136.8,67.6
	c1,12.3,11.3,26.2,24,26.2c12.6,0,23.2-9.8,24.1-22.3l0-0.5l-24-56.2H39.1L14.6,71.1l0,0.5c0.9,12.5,11.5,22.3,24.1,22.3
	c10.7,0,23-11.3,24-26.2h12.8c1,12.3,11.3,26.2,24,26.2c13.1,0,23.4-13.7,24.4-26.2H136.8z"/>
</svg>
