<?xml version="1.0" standalone="no"?><!DOCTYPE svg PUBLIC "-//W3C//DTD SVG 1.1//EN" "http://www.w3.org/Graphics/SVG/1.1/DTD/svg11.dtd"><svg t="1534831860983" class="icon" style="" viewBox="0 0 1024 1024" version="1.1" xmlns="http://www.w3.org/2000/svg" p-id="1737" xmlns:xlink="http://www.w3.org/1999/xlink" width="500" height="500"><defs><style type="text/css"></style></defs><path d="M901.12 66.56H122.88a122.88 122.88 0 0 0-122.88 122.88v532.48a122.88 122.88 0 0 0 122.88 122.88h259.4816l100.7616 100.7616a40.96 40.96 0 0 0 57.9584 0l100.7616-100.7616H901.12a122.88 122.88 0 0 0 122.88-122.88v-532.48a122.88 122.88 0 0 0-122.88-122.88z m71.68 655.36a71.68 71.68 0 0 1-71.68 71.68H641.6384a51.2 51.2 0 0 0-36.2496 14.9504L512 901.12l-93.3888-93.3888a51.2 51.2 0 0 0-36.2496-14.9504H122.88a71.68 71.68 0 0 1-71.68-71.68v-532.48A71.68 71.68 0 0 1 122.88 117.76h778.24a71.68 71.68 0 0 1 71.68 71.68z" p-id="1738"></path><path d="M302.2848 389.12a25.3952 25.3952 0 0 0-8.6016-1.6384 25.6 25.6 0 0 0-24.1664 16.7936l-31.5392 86.6304a25.6 25.6 0 0 0 15.36 32.768 25.3952 25.3952 0 0 0 8.6016 1.6384 25.6 25.6 0 0 0 24.7808-17.6128l31.5392-86.6304a25.6 25.6 0 0 0-15.9744-31.9488zM536.576 389.12a25.3952 25.3952 0 0 0-8.6016-1.6384 25.6 25.6 0 0 0-24.1664 16.7936l-31.5392 86.6304a25.6 25.6 0 0 0 15.36 32.768 25.3952 25.3952 0 0 0 8.6016 1.6384 25.6 25.6 0 0 0 24.1664-16.7936l31.5392-86.6304a25.6 25.6 0 0 0-15.36-32.768zM770.6624 389.12a25.3952 25.3952 0 0 0-8.6016-1.6384 25.6 25.6 0 0 0-24.1664 16.7936l-31.5392 86.6304a25.6 25.6 0 0 0 15.36 32.768 25.3952 25.3952 0 0 0 8.6016 1.6384 25.6 25.6 0 0 0 24.1664-16.7936l31.5392-86.6304a25.6 25.6 0 0 0-15.36-32.768z" p-id="1739"></path></svg>