<?xml version="1.0" standalone="no"?><!DOCTYPE svg PUBLIC "-//W3C//DTD SVG 1.1//EN" "http://www.w3.org/Graphics/SVG/1.1/DTD/svg11.dtd"><svg t="1534831896603" class="icon" style="" viewBox="0 0 1024 1024" version="1.1" xmlns="http://www.w3.org/2000/svg" p-id="2170" xmlns:xlink="http://www.w3.org/1999/xlink" width="500" height="500"><defs><style type="text/css"></style></defs><path d="M359.0144 92.16A71.68 71.68 0 0 1 430.08 163.84v266.24H163.84a71.68 71.68 0 0 1-71.68-71.68V163.84A71.68 71.68 0 0 1 163.84 92.16h195.1744m0-51.2H163.84a122.88 122.88 0 0 0-122.88 122.88v195.1744a122.88 122.88 0 0 0 122.88 122.88h277.0944a40.96 40.96 0 0 0 40.96-40.96V163.84a122.88 122.88 0 0 0-122.88-122.88zM860.16 92.16A71.68 71.68 0 0 1 931.84 163.84v195.1744A71.68 71.68 0 0 1 860.16 430.08H593.92V163.84a71.68 71.68 0 0 1 71.68-71.68H860.16M860.16 40.96h-195.1744a122.88 122.88 0 0 0-122.88 122.88v277.0944a40.96 40.96 0 0 0 40.96 40.96H860.16a122.88 122.88 0 0 0 122.88-122.88V163.84a122.88 122.88 0 0 0-122.88-122.88zM430.08 593.92v266.24a71.68 71.68 0 0 1-71.68 71.68H163.84A71.68 71.68 0 0 1 92.16 860.16v-195.1744A71.68 71.68 0 0 1 163.84 593.92h266.24m10.24-51.2H163.84a122.88 122.88 0 0 0-122.88 122.88V860.16a122.88 122.88 0 0 0 122.88 122.88h195.1744a122.88 122.88 0 0 0 122.88-122.88V583.0656a40.96 40.96 0 0 0-40.96-40.96zM860.16 593.92a71.68 71.68 0 0 1 71.68 71.68V860.16a71.68 71.68 0 0 1-71.68 71.68h-195.1744A71.68 71.68 0 0 1 593.92 860.16V593.92h266.24m0-51.2H583.0656a40.96 40.96 0 0 0-40.96 40.96V860.16a122.88 122.88 0 0 0 122.88 122.88H860.16a122.88 122.88 0 0 0 122.88-122.88v-195.1744a122.88 122.88 0 0 0-122.88-122.88z" p-id="2171"></path></svg>