<?xml version="1.0" standalone="no"?><!DOCTYPE svg PUBLIC "-//W3C//DTD SVG 1.1//EN" "http://www.w3.org/Graphics/SVG/1.1/DTD/svg11.dtd"><svg t="1536026342394" class="icon" style="" viewBox="0 0 1024 1024" version="1.1" xmlns="http://www.w3.org/2000/svg" p-id="2563" xmlns:xlink="http://www.w3.org/1999/xlink" width="500" height="500"><defs><style type="text/css"></style></defs><path d="M955.181616 255.996774a8.806289 8.806289 0 0 0-1.843177-2.047974 14.131022 14.131022 0 0 0-2.252771-2.662366A23.142108 23.142108 0 0 0 942.074581 245.756903L524.083048 3.481556a25.39488 25.39488 0 0 0-25.599678 0L85.611772 243.299334a24.985285 24.985285 0 0 0-19.455754 28.671639l-1.228785 482.502721a25.190083 25.190083 0 0 0 12.69744 22.322918l422.292279 243.70893a25.190083 25.190083 0 0 0 25.599678 0l419.629912-243.70893a26.009272 26.009272 0 0 0 12.69744-22.118121l1.228785-485.165087a23.756501 23.756501 0 0 0-3.891151-13.51663zM512 55.090506l368.635355 213.603708-368.635355 213.808506L143.364645 268.899012zM117.355373 312.930457l368.635355 212.989316v427.82181L116.126588 739.933077zM537.599677 954.355975V527.558153l370.273735-215.242088-1.228785 427.617012z" p-id="2564"></path></svg>