<?xml version="1.0" encoding="utf-8"?>
<!-- Generator: Adobe Illustrator 22.0.0, SVG Export Plug-In . SVG Version: 6.00 Build 0)  -->
<svg version="1.1" id="图层_1" xmlns="http://www.w3.org/2000/svg" xmlns:xlink="http://www.w3.org/1999/xlink" x="0px" y="0px"
	 viewBox="0 0 200 151.3" style="enable-background:new 0 0 200 151.3;" xml:space="preserve">
<path d="M145.4,131.1H79.8l-29.5,19.7l-1.2-0.7c-1.4,0.8-3,1.2-4.6,1.2c-5.6,0-10.1-4.5-10.1-10.1v-121C34.5,9,43.5,0,54.6,0h90.8
	c11.1,0,20.2,9,20.2,20.2v90.8C165.5,122.1,156.5,131.1,145.4,131.1z M155.5,20.2c0-5.6-4.5-10.1-10.1-10.1H54.6
	c-5.6,0-10.1,4.5-10.1,10.1v110.9c0.1,0,0.1,0,0.2,0c-0.1,0.3-0.2,0.6-0.2,0.9c0,2.8,2.3,5,5,5c1.6,0,3-0.8,3.9-2l0.1,0.1L74.8,121
	h70.6c5.6,0,10.1-4.5,10.1-10.1V20.2z M105,100.8H95V90.8H74.8V80.7H95V70.6H74.8V60.5h18.7l-18.7-23l7.2-7.2l17.1,21.1L118,30.3
	l7.2,7.2l-20.6,23h20.6v10.1H105v10.1h20.2v10.1H105V100.8z"/>
</svg>
