<?xml version="1.0" standalone="no"?><!DOCTYPE svg PUBLIC "-//W3C//DTD SVG 1.1//EN" "http://www.w3.org/Graphics/SVG/1.1/DTD/svg11.dtd"><svg t="1534832037106" class="icon" style="" viewBox="0 0 1024 1024" version="1.1" xmlns="http://www.w3.org/2000/svg" p-id="2316" xmlns:xlink="http://www.w3.org/1999/xlink" width="500" height="500"><defs><style type="text/css"></style></defs><path d="M747.3152 288.768a25.6 25.6 0 0 0 17.6128 31.5392l151.552 43.008a25.1904 25.1904 0 0 0 6.9632 0 25.6 25.6 0 0 0 24.576-18.6368l43.008-151.552A25.6 25.6 0 0 0 942.08 180.224l-24.7808 87.4496A476.16 476.16 0 1 0 962.56 652.288a25.6 25.6 0 1 0-48.9472-15.1552 425.1648 425.1648 0 1 1-38.7072-338.7392L778.24 271.1552a25.6 25.6 0 0 0-30.9248 17.6128z" p-id="2317"></path><path d="M668.4672 268.6976a25.6 25.6 0 0 0-36.2496 0l-124.1088 124.1088-124.1088-124.1088A25.6 25.6 0 0 0 348.16 304.7424l106.2912 106.2912H368.64a25.6 25.6 0 1 0 0 51.2h113.0496v84.1728H368.64a25.6 25.6 0 0 0 0 51.2h113.0496V778.24a25.6 25.6 0 0 0 51.2 0v-180.6336h113.0496a25.6 25.6 0 0 0 0-51.2h-112.2304v-84.1728h113.0496a25.6 25.6 0 0 0 0-51.2h-84.5824l106.2912-106.2912a25.6 25.6 0 0 0 0-36.0448z" p-id="2318"></path></svg>