<?xml version="1.0" standalone="no"?><!DOCTYPE svg PUBLIC "-//W3C//DTD SVG 1.1//EN" "http://www.w3.org/Graphics/SVG/1.1/DTD/svg11.dtd"><svg t="1534831871019" class="icon" style="" viewBox="0 0 1024 1024" version="1.1" xmlns="http://www.w3.org/2000/svg" p-id="1884" xmlns:xlink="http://www.w3.org/1999/xlink" width="500" height="500"><defs><style type="text/css"></style></defs><path d="M998.912 175.104a109.3632 109.3632 0 0 0-84.5824-39.936H203.8784l-3.072-20.48a109.1584 109.1584 0 0 0-108.3392-91.3408H25.7024a25.6 25.6 0 1 0 0 51.4048h66.7648A57.9584 57.9584 0 0 1 150.016 122.88l81.92 516.3008a109.1584 109.1584 0 0 0 108.3392 92.3648H807.0144a151.9616 151.9616 0 0 0 148.8896-122.88L1022.0544 266.24a109.3632 109.3632 0 0 0-23.1424-91.136z m-27.2384 80.896l-66.1504 343.8592a100.352 100.352 0 0 1-98.5088 81.92H340.6848a57.9584 57.9584 0 0 1-57.5488-49.152L212.0704 186.5728h702.464a58.368 58.368 0 0 1 57.344 69.2224zM379.8016 773.12a113.8688 113.8688 0 1 0 113.8688 113.8688 113.8688 113.8688 0 0 0-113.8688-113.8688z m0 176.3328a61.44 61.44 0 1 1 61.44-61.44 62.464 62.464 0 0 1-61.44 61.44zM791.8592 773.12a113.8688 113.8688 0 1 0 113.8688 113.8688 113.8688 113.8688 0 0 0-113.8688-113.8688z m0 176.3328a61.44 61.44 0 1 1 61.44-61.44 62.464 62.464 0 0 1-61.44 61.44z" p-id="1885"></path><path d="M774.2464 557.6704H401.7152a25.6 25.6 0 0 0 0 51.4048H774.2464a25.6 25.6 0 0 0 0-51.4048z" p-id="1886"></path></svg>