<?xml version="1.0" standalone="no"?><!DOCTYPE svg PUBLIC "-//W3C//DTD SVG 1.1//EN" "http://www.w3.org/Graphics/SVG/1.1/DTD/svg11.dtd"><svg t="1534832083288" class="icon" style="" viewBox="0 0 1024 1024" version="1.1" xmlns="http://www.w3.org/2000/svg" p-id="2605" xmlns:xlink="http://www.w3.org/1999/xlink" width="500" height="500"><defs><style type="text/css"></style></defs><path d="M897.8432 227.7376h-31.744V175.9232A107.7248 107.7248 0 0 0 757.76 68.4032H122.88A105.2672 105.2672 0 0 0 18.6368 173.6704v633.4464a148.6848 148.6848 0 0 0 148.48 148.48h689.7664a148.6848 148.6848 0 0 0 148.48-148.48v-471.04a107.7248 107.7248 0 0 0-107.52-108.3392zM122.88 119.6032h634.88a56.32 56.32 0 0 1 56.32 56.32v51.6096H122.88a54.0672 54.0672 0 1 1 0-107.9296z m734.0032 784.7936H167.1168a97.4848 97.4848 0 0 1-97.28-97.28V263.9872a104.8576 104.8576 0 0 0 12.0832 6.3488h1.6384a104.2432 104.2432 0 0 0 15.9744 4.9152h4.7104a104.6528 104.6528 0 0 0 18.8416 1.8432h774.7584a56.32 56.32 0 0 1 56.32 56.32v143.7696H747.52a105.2672 105.2672 0 0 0 0 210.3296h206.6432v119.3984a97.4848 97.4848 0 0 1-97.28 97.4848z m97.28-376.0128v107.9296H747.52a54.0672 54.0672 0 0 1 0-107.9296z" p-id="2606"></path></svg>